<svg viewBox="0 0 634.66 272.83" xmlns="http://www.w3.org/2000/svg" xmlns:xlink="http://www.w3.org/1999/xlink"><linearGradient id="a" gradientUnits="userSpaceOnUse" x1="398.24" x2="398.24" y1="584.84" y2="369.23"><stop offset="0" stop-color="#c57ba7"/><stop offset=".32" stop-color="#a893ba"/><stop offset=".76" stop-color="#87afd1"/><stop offset="1" stop-color="#7bbad9"/></linearGradient><linearGradient id="b" x1="401.31" x2="404.52" xlink:href="#a" y1="444.93" y2="163.71"/><linearGradient id="c" gradientUnits="userSpaceOnUse" x1="286.07" x2="286.07" y1="398.38" y2="425.96"><stop offset="0" stop-color="#151216"/><stop offset=".01" stop-color="#151216" stop-opacity=".99"/><stop offset="1" stop-color="#36283e" stop-opacity=".2"/></linearGradient><linearGradient id="d" x1="488.02" x2="488.02" xlink:href="#c" y1="398.38" y2="425.96"/><linearGradient id="e" gradientTransform="matrix(-1 0 0 1 -4339.12 0)" gradientUnits="userSpaceOnUse" x1="-4692.65" x2="-4787.49" y1="193.36" y2="270.07"><stop offset="0" stop-color="#cc9c3a"/><stop offset=".21" stop-color="#c88a49"/><stop offset=".73" stop-color="#bf626b"/><stop offset="1" stop-color="#bb5378"/></linearGradient><linearGradient id="f" gradientTransform="matrix(-.13 .99 .99 .13 -8310.22 4425.49)" gradientUnits="userSpaceOnUse" x1="-5215.15" x2="-5215.15" y1="8203.6" y2="8238.09"><stop offset="0" stop-color="#ecccbe"/><stop offset=".39" stop-color="#ebcabc"/><stop offset=".59" stop-color="#e9c3b4"/><stop offset=".75" stop-color="#e5b7a6"/><stop offset=".89" stop-color="#e0a794"/><stop offset="1" stop-color="#d9937d"/></linearGradient><linearGradient id="g" gradientUnits="userSpaceOnUse" x1="501.15" x2="508.8" y1="263.55" y2="274.22"><stop offset="0" stop-color="#ecccbe"/><stop offset=".24" stop-color="#ebc8ba"/><stop offset=".5" stop-color="#e7beae"/><stop offset=".75" stop-color="#e1ac99"/><stop offset="1" stop-color="#d9937d"/></linearGradient><linearGradient id="h" gradientTransform="matrix(1.05 -.15 .14 .97 -4903.89 588.05)" gradientUnits="userSpaceOnUse" x1="5051.17" x2="5066.13" y1="476.57" y2="476.57"><stop offset="0" stop-color="#ecccbe"/><stop offset=".04" stop-color="#ebc8b9"/><stop offset=".26" stop-color="#e3b19f"/><stop offset=".5" stop-color="#dda08c"/><stop offset=".74" stop-color="#da9681"/><stop offset="1" stop-color="#d9937d"/></linearGradient><linearGradient id="i" gradientUnits="userSpaceOnUse" x1="509.56" x2="500.52" y1="257.96" y2="246.79"><stop offset="0" stop-color="#ecccbe"/><stop offset=".59" stop-color="#e0a895"/><stop offset="1" stop-color="#d9937d"/></linearGradient><linearGradient id="j" gradientUnits="userSpaceOnUse" x1="464.21" x2="578.64" y1="325.09" y2="325.09"><stop offset="0" stop-color="#161f78"/><stop offset=".08" stop-color="#141d6c"/><stop offset=".26" stop-color="#101856"/><stop offset=".47" stop-color="#0d1546"/><stop offset=".7" stop-color="#0c133c"/><stop offset="1" stop-color="#0b1239"/></linearGradient><linearGradient id="k" gradientTransform="matrix(.99 -.13 .13 .99 3268.66 -739.12)" x1="-2898.01" x2="-2898.01" xlink:href="#j" y1="623.83" y2="689.74"/><linearGradient id="l" gradientTransform="matrix(.97301803 -.23072909 .23072909 .97301803 3065.57 -1763.02)" x1="-2991.45" x2="-2994.47" xlink:href="#f" y1="1508.87" y2="1480.39"/><linearGradient id="m" gradientTransform="matrix(.97301803 -.23072909 .23072909 .97301803 3065.57 -1763.02)" x1="-3009.5" x2="-2974.3" xlink:href="#j" y1="1502.14" y2="1502.14"/><linearGradient id="n" gradientTransform="matrix(.97301803 -.23072909 .23072909 .97301803 3065.57 -1763.02)" x1="-2986.37" x2="-2992.43" xlink:href="#j" y1="1485.84" y2="1428.59"/><linearGradient id="o" x1="472.19" x2="472.19" xlink:href="#j" y1="277.2" y2="349.06"/><linearGradient id="p" gradientTransform="translate(3303.42)" x1="-2860.07" x2="-2860.07" xlink:href="#f" y1="401.01" y2="374.15"/><linearGradient id="q" x1="425.47" x2="461.22" xlink:href="#j" y1="394.98" y2="394.98"/><linearGradient id="r" x1="455.82" x2="455.82" xlink:href="#j" y1="379.23" y2="328.88"/><linearGradient id="s" gradientUnits="userSpaceOnUse" x1="379.18" x2="375.62" y1="51.62" y2="49.56"><stop offset="0" stop-color="#d1b18f"/><stop offset="1" stop-color="#d08e67"/></linearGradient><linearGradient id="t" gradientTransform="translate(3303.42)" x1="-2820.84" x2="-2832.9" xlink:href="#f" y1="223.77" y2="216.81"/><linearGradient id="u" gradientTransform="translate(3303.42)" x1="-2822.4" x2="-2844.64" xlink:href="#f" y1="215.5" y2="202.66"/><linearGradient id="v" gradientTransform="matrix(-1 0 0 1 742.1 0)" x1="255.73" x2="289.19" xlink:href="#j" y1="207.64" y2="207.64"/><linearGradient id="w" gradientTransform="translate(3303.42)" x1="-2829.41" x2="-2835.24" xlink:href="#f" y1="213.04" y2="209.67"/><linearGradient id="x" gradientUnits="userSpaceOnUse" x1="473.25" x2="469.33" y1="257.16" y2="209.4"><stop offset="0" stop-color="#e4e2f0"/><stop offset=".32" stop-color="#c9cce4"/><stop offset=".76" stop-color="#aab3d6"/><stop offset="1" stop-color="#9ea9d1"/></linearGradient><linearGradient id="y" gradientUnits="userSpaceOnUse" x1="419.87" x2="449.11" y1="303.48" y2="280.02"><stop offset="0" stop-color="#ecccbe"/><stop offset="1" stop-color="#d9937d"/></linearGradient><linearGradient id="z" gradientTransform="matrix(.99142207 .13069923 -.13069923 .99142207 3862.72 3353.77)" x1="-3780.39" x2="-3784.53" xlink:href="#f" y1="-2640.45" y2="-2602.93"/><linearGradient id="A" gradientTransform="matrix(-.97 -.26 -.26 .97 -4861.66 -648.27)" gradientUnits="userSpaceOnUse" x1="-5231.08" x2="-5223.51" y1="-474.58" y2="-474.58"><stop offset="0" stop-color="#fafcfd"/><stop offset=".52" stop-color="#f8fafc"/><stop offset=".71" stop-color="#f1f4f9"/><stop offset=".85" stop-color="#e6eaf5"/><stop offset=".96" stop-color="#d5dbee"/><stop offset="1" stop-color="#ccd3ea"/></linearGradient><linearGradient id="B" gradientTransform="matrix(-.97 -.26 -.26 .97 -4861.66 -648.27)" gradientUnits="userSpaceOnUse" x1="-5226.27" x2="-5242.63" y1="-490.82" y2="-490.82"><stop offset="0" stop-color="#eacbcf"/><stop offset="1" stop-color="#dfabb6"/></linearGradient><linearGradient id="C" gradientTransform="translate(-8991.11)" gradientUnits="userSpaceOnUse" x1="9302.58" x2="9273.03" y1="377.26" y2="394.33"><stop offset="0" stop-color="#f4f3f0"/><stop offset="1" stop-color="#dfabb6"/></linearGradient><linearGradient id="D" x1="289.82" x2="309.94" xlink:href="#j" y1="403.01" y2="382.89"/><linearGradient id="E" x1="294.87" x2="281.94" xlink:href="#j" y1="378.92" y2="265.67"/><linearGradient id="F" x1="9273.18" x2="9245.4" xlink:href="#C" y1="382.26" y2="398.29"/><linearGradient id="G" x1="262.22" x2="280.35" xlink:href="#j" y1="406.17" y2="388.04"/><linearGradient id="H" gradientUnits="userSpaceOnUse" x1="246.07" x2="334.47" y1="320.19" y2="346.21"><stop offset="0" stop-color="#161f78"/><stop offset=".01" stop-color="#161f77"/><stop offset=".25" stop-color="#11195c"/><stop offset=".49" stop-color="#0e1548"/><stop offset=".74" stop-color="#0c133d"/><stop offset="1" stop-color="#0b1239"/></linearGradient><linearGradient id="I" x1="275.83" x2="275.12" xlink:href="#x" y1="247.57" y2="207.65"/><linearGradient id="J" gradientTransform="matrix(-1 0 0 1 -4990 -163.58)" x1="-5187.61" x2="-5187.61" xlink:href="#C" y1="221.52" y2="229.03"/><linearGradient id="K" gradientTransform="matrix(1 -.1 .1 1 -9944.6 84.65)" gradientUnits="userSpaceOnUse" x1="10099.01" x2="10099.01" y1="963.99" y2="955.33"><stop offset="0" stop-color="#161f78"/><stop offset=".23" stop-color="#151e73"/><stop offset=".51" stop-color="#131b64"/><stop offset=".81" stop-color="#0e164c"/><stop offset="1" stop-color="#0b1239"/></linearGradient><linearGradient id="L" gradientTransform="matrix(1 -.1 .1 1 -9944.6 84.65)" gradientUnits="userSpaceOnUse" x1="10110.53" x2="10090.26" y1="987.73" y2="976.03"><stop offset="0" stop-color="#161f78"/><stop offset=".23" stop-color="#151d70"/><stop offset=".58" stop-color="#11195b"/><stop offset="1" stop-color="#0b1239"/></linearGradient><linearGradient id="M" gradientTransform="matrix(-.98 .18 .18 .98 -4835.21 425.01)" x1="-5077.11" x2="-5064.9" xlink:href="#C" y1="691.43" y2="691.43"/><linearGradient id="N" gradientTransform="matrix(-.94 .33 .33 .94 -5714.24 303.86)" x1="-5705.23" x2="-5683.44" xlink:href="#C" y1="1881.44" y2="1881.44"/><linearGradient id="O" gradientTransform="matrix(-.99 .17 .17 .99 -5622.19 -8.36)" gradientUnits="userSpaceOnUse" x1="-5798.34" x2="-5769.16" y1="1197.15" y2="1197.15"><stop offset="0" stop-color="#161f78"/><stop offset=".24" stop-color="#151e73"/><stop offset=".51" stop-color="#131b65"/><stop offset=".79" stop-color="#0f164e"/><stop offset="1" stop-color="#0b1239"/></linearGradient><linearGradient id="P" gradientTransform="matrix(-.94 .33 .33 .94 -5714.24 303.86)" x1="-5685.83" x2="-5681.63" xlink:href="#C" y1="1879.15" y2="1879.15"/><linearGradient id="Q" x1="286.06" x2="286.06" xlink:href="#x" y1="228.61" y2="219.89"/><linearGradient id="R" gradientUnits="userSpaceOnUse" x1="204.65" x2="204.65" y1="63.65" y2="55.73"><stop offset="0" stop-color="#fafcfd"/><stop offset=".99" stop-color="#ccd3ea"/><stop offset="1" stop-color="#ccd3ea"/></linearGradient><linearGradient id="S" gradientTransform="translate(-8409.73 -163.58)" gradientUnits="userSpaceOnUse" x1="8602.1" x2="8602.1" y1="229.89" y2="215.39"><stop offset="0" stop-color="#fafcfd"/><stop offset=".3" stop-color="#f1f4f9"/><stop offset=".78" stop-color="#d9dfef"/><stop offset="1" stop-color="#ccd3ea"/></linearGradient><linearGradient id="T" x1="198.93" x2="198.93" xlink:href="#x" y1="65.03" y2="61.95"/><linearGradient id="U" x1="200.99" x2="314.47" xlink:href="#j" y1="325.08" y2="325.08"/><linearGradient id="V" x1="405.44" x2="318.79" xlink:href="#e" y1="198.81" y2="268.89"/><linearGradient id="W" x1="243.97" x2="277.83" xlink:href="#e" y1="88.3" y2="101.49"/><linearGradient id="X" x1="353.85" x2="353.85" xlink:href="#x" y1="272.82" y2="277.94"/><linearGradient id="Y" x1="353.85" x2="353.85" xlink:href="#x" y1="240.95" y2="248.79"/><linearGradient id="Z" x1="284.01" x2="283.5" xlink:href="#x" y1="86.93" y2="75.95"/><linearGradient id="aa" x1="284.01" x2="283.5" xlink:href="#x" y1="116.69" y2="105.71"/><linearGradient id="ab" gradientTransform="matrix(-1 0 0 1 -4990 -163.58)" x1="-5197.85" x2="-5185.49" xlink:href="#S" y1="261.36" y2="261.36"/><linearGradient id="ac" gradientTransform="matrix(-.82 -.57 -.57 .82 -2275.17 2185.26)" x1="-1034.73" x2="-990.01" xlink:href="#C" y1="-3063.11" y2="-3063.11"/><linearGradient id="ad" gradientTransform="matrix(-1 0 0 1 -4905.92 0)" x1="-5196.65" x2="-5184.31" xlink:href="#S" y1="260.9" y2="260.9"/><linearGradient id="ae" gradientTransform="matrix(.51 -.86 -.86 -.51 -4564.95 7249.49)" x1="8539.02" x2="8544.92" xlink:href="#C" y1="-585.54" y2="-585.54"/><linearGradient id="af" gradientUnits="userSpaceOnUse" x1="584.08" x2="583.06" y1="388.97" y2="245.11"><stop offset="0" stop-color="#8064a1"/><stop offset="1" stop-color="#99c9e6"/></linearGradient><linearGradient id="ag" x1="318.32" x2="317.29" xlink:href="#af" y1="253.83" y2="109.96"/><linearGradient id="ah" x1="649.47" x2="650.42" xlink:href="#af" y1="371.19" y2="343.15"/><linearGradient id="ai" x1="233.23" x2="232.21" xlink:href="#af" y1="322.02" y2="178.15"/><linearGradient id="aj" x1="213.72" x2="212.69" xlink:href="#af" y1="351.8" y2="207.93"/><linearGradient id="ak" x1="499.69" x2="498.66" xlink:href="#af" y1="273.77" y2="129.91"/><linearGradient id="al" x1="136.35" x2="135.33" xlink:href="#af" y1="379.02" y2="235.15"/><g transform="translate(-84.08 -163.58)"><path d="m678.93 425.44c-32.73-10.46-28.45-27.3-61.72-47.21-31.15-18.65-57.59-7.21-89.35 10.52-33.32 18.59-31.22-34.07-45.69-66.2l-12.12 19.26v-64.52c-21.49-17.61-44.25-33.5-74-31.47-36.58 2.5-82 33-101.3 64.55-23 37.65-10.54 70.88-48 50-31.75-17.72-45.75-37.56-78.67-22.37-26.36 12.16-15.37 43.9-50.53 68.08v30.31h561.38z" fill="url(#a)"/><path d="m599.92 416.44c-20.44-7.6-26.85-36.44-26.85-36.44-34.93-130.19-42.77-151.28-97.64-149.25-50.2 1.86-45.57 91.1-79.64 70-3.66-2.82-7.16-5.8-10.57-8.87-8.74-7.88-16.87-16.34-25.61-24.2-18.84-16.94-45-33-74.49-17.25-11 5.88-19.43 14.6-26.11 23.81-21.72 29.94-26.63 65.06-41.28 97.42-4.36 9.64-10.07 19.54-20.31 25.78-36.8 22.38-48.53-34.37-85.45-23.94-22.05 6.23-24.81 28.4-26.18 43.84l-1.65 18.6c0 .16 0 .32-.05.48h634.64c-45.62-57.97-98.37-12.42-118.81-19.98z" fill="url(#b)"/><path d="m257.73 385.48c-17 0-33.23.23-48.18.65a42.64 42.64 0 0 1 -12.13 11.31c-6.19 3.76-11.66 5.28-16.67 5.26 21.76 1.11 48.32 2.13 77 2.13 73.82 0 133.66-4.33 133.66-9.68s-59.86-9.67-133.68-9.67z" fill="url(#c)" opacity=".14"/><path d="m576.81 386c-13.75-.35-28.53-.53-43.91-.53-73.82 0-133.66 4.33-133.66 9.68s59.84 9.68 133.66 9.68c15.38 0 30.15-.19 43.91-.53z" fill="url(#d)" opacity=".14"/><path d="m424.77 224.69h.77c23.06 0 41.75 15.06 41.75 33.64s-18.69 33.67-41.75 33.67h-.77z" fill="url(#e)"/><path d="m498.76 283.08 1.1-1.27c-1.52-1.61-3.12-3.14-4.78-4.6l-.83 1.36-1.24.7-2.88 1.29-1.85.83a10.74 10.74 0 0 1 -2.23 1c-.75.16-1.52.18-2.28.26a.56.56 0 0 0 -.35.12.67.67 0 0 0 -.1.53 2.24 2.24 0 0 0 .34 1.23 2.07 2.07 0 0 0 .55.45 3.47 3.47 0 0 0 1 .47 2.14 2.14 0 0 0 .9-.08 10.13 10.13 0 0 1 1.72.13 6.22 6.22 0 0 0 -.62 1.15 4.53 4.53 0 0 0 -.58 1.55.25.25 0 0 0 0 .16.3.3 0 0 0 .13.1c.21.11.31.34.49.48s.43.14.63.26a2.05 2.05 0 0 1 .46.58 2.4 2.4 0 0 0 .95.7 1.05 1.05 0 0 1 .46.33 2.26 2.26 0 0 0 .36.5c.22.18.5.06.75.05s.41.25.66.42.55 0 .79-.16a15 15 0 0 0 3-2 15.57 15.57 0 0 0 1.55-3l1.89-3.64z" fill="url(#f)"/><path d="m516.75 260a5 5 0 0 1 .26 2.2 7.06 7.06 0 0 1 -2 3.53q-5 5.9-10.44 11.44c-1.79 1.85-4.16 4.44-6 6.2l-5-4.28s10-12.63 14.61-19.73c.85-1.31 1.82-2.72 3.29-3.08 2.21-.53 3.4 0 4.54 2.12a10.07 10.07 0 0 1 .74 1.6z" fill="url(#g)"/><path d="m493.55 287.8c-.44-.62-.78-.33-.78-.33l-1.23 1.93.33-.87c.42-1.11.43-.83.85-1.94 0 0-1.09-1.15-1.77.16l.61-2.29a2.67 2.67 0 0 0 -3.47-1.19s-1.74 4-1.87 4.56a1 1 0 0 0 .07.78c.18.25.56.33.77.57s.16.87.5 1.13.64.16.87.37.22.54.42.74.48.22.67.38.14.16.22.23a.75.75 0 0 0 .72.11h.32c1.7-.23 3.22-3.72 2.77-4.34z" fill="url(#h)"/><path d="m509.72 263.72c-1.63-.41-3-1.8-4.27-3.32-3.22-3.7-6.49-7.35-9.75-11q-2.18-2.45-4.33-4.91c-2.93-3.37-7.29-8.26-3.43-12.76a5 5 0 0 1 4-1.17 5.85 5.85 0 0 1 2.66 1.31 44.61 44.61 0 0 1 4.8 5.17c2.72 3 5.4 6 8 9.18 1.66 2 3.3 4.05 4.84 6.17 1.27 1.75 3 3.81 3.55 6s-1.28 4.23-3.13 5a4.51 4.51 0 0 1 -2.94.33z" fill="url(#i)"/><path d="m495.61 255c-3-4.87-15.25-19.8-9.48-25.56 6.38-6.37 21.8 13.56 21.8 13.56z" fill="#fff"/><path d="m574.55 384.91c-24.65-2.1-36-42.42-47.08-81.51q-1.18-4.19-2.36-8.32c-13.51-47.29-58.84-39.66-59.3-39.58l.68 5 .67 5c1.57-.28 38.47-6.32 49.63 32.74q1.17 4.1 2.35 8.28c11.74 41.6 25 88.6 57.29 88.6h2.22a64.53 64.53 0 0 1 -4.1-10.21z" fill="url(#j)"/><path d="m478.84 333.08c-3.72-9-5.45-18.86-6.91-28.48-.73-4.78-.69-22.61-1.07-27.44-.72-9.13 1.39-7.65 12.51-6.81a10.84 10.84 0 0 1 4 1.12c14.84 7.43 9.68 29.79 7.63 42.28-.89 5.42-2.27 11.94-3.5 17.3-6.11 7.03-12.66 2.03-12.66 2.03z" fill="url(#k)"/><path d="m515.17 380.07a11.51 11.51 0 0 0 -1.67-1.88c-.17-.17-1.66-1.88-1.78-2.1-1.61-3.2-5.13-12.44-5.13-12.44l-9 4s4.83 7.19 5.66 12.34c-3 4-8.71 10.2-8.71 10.2s-7.42 5-7.76 5.34a8.18 8.18 0 0 0 -1.94 2.78s0 2.5 10.74-.49a36.61 36.61 0 0 0 11.21-5.28l4.33-2.45c1.48-.84 6.05-3.1 6.45-3.83a1.94 1.94 0 0 0 .25-.76c.18-1.81-1.75-3.99-2.65-5.43z" fill="url(#l)"/><path d="m513.54 378.23a27.34 27.34 0 0 1 -6.78 3 15.19 15.19 0 0 1 -5.1.71c-3.06 3.79-7.15 8.19-7.15 8.19s-7.42 5-7.76 5.34a8.18 8.18 0 0 0 -1.94 2.78s0 2.5 10.74-.49a36.61 36.61 0 0 0 11.21-5.28l4.33-2.45c1.48-.84 6.05-3.1 6.45-3.83a1.94 1.94 0 0 0 .25-.76c.17-1.78-1.74-4-2.64-5.41a11.16 11.16 0 0 0 -1.61-1.8z" fill="url(#m)"/><path d="m510.72 366.94c-3-11.35-13.25-34.63-23.42-46-1.6-1.79-4.67-3.13-7.07-2.39-1.85.57-4.15 2.41-4.57 4.39-.35 1.64 1.12 6 1.81 7.38 1.93 4.05 13.73 31.15 20 43.18z" fill="url(#n)"/><path d="m459.14 277.2h21.18l.08.13v-.13h14.72a35.63 35.63 0 0 1 -.17 12.46c-2.1 9.42-13.76 13.11-17.74 14.11-2.26 4.6-4.82 8.86-6.77 12.32-2.7 4.79-5.32 13.8-8.31 18.41-8.13 4.5-13.31-1.5-13.31-1.5-.39-9.76 1.17-23.86 3.1-33.39.78-3.88 4.98-15.61 7.22-22.41z" fill="url(#o)"/><path d="m460.75 393a11.53 11.53 0 0 0 -.7-2.42c-.08-.22-.69-2.42-.69-2.66-.07-3.58.76-13.43.76-13.43l-9.87-.33s1.24 8.58-.25 13.57c-4.41 2.34-12.27 5.42-12.27 5.42s-8.84 1.26-9.3 1.45a8.17 8.17 0 0 0 -3 1.66s-1.07 2.26 9.9 4.21a36.61 36.61 0 0 0 12.39.1l5-.33c1.7-.11 6.8-.18 7.47-.65a1.94 1.94 0 0 0 .56-.58c.95-1.54.18-4.34 0-6.01z" fill="url(#p)"/><path d="m454.68 374.29q.28.81.49 1.64.3-.8.58-1.6z" fill="#efd4b4"/><path d="m460.05 390.57c0-.13-.27-.92-.45-1.61l-1.13.56c-4.25 2-8.8 1.72-13.28.67l-.24-.07c-3.67 1.62-7.21 3-7.21 3s-8.84 1.26-9.3 1.45a8.17 8.17 0 0 0 -3 1.66s-1.07 2.26 9.9 4.21a36.62 36.62 0 0 0 12.39.1l5-.33c1.7-.11 6.8-.18 7.47-.65a1.94 1.94 0 0 0 .56-.58c.92-1.54.15-4.33 0-6a11.53 11.53 0 0 0 -.71-2.41z" fill="url(#q)"/><path d="m461.41 379.23c2-10.37 1.7-16 1.88-26.5.06-3.76.41-6.41 0-10.15s-.38-11-4.36-12.94a9 9 0 0 0 -7.82.28c-2.19 1.25-2.64 3.84-2.65 6.16 0 4.49-.62 28.94-.18 42.5z" fill="url(#r)"/></g><path d="m377.28 46.68 1.43 5.76-3.32.82z" fill="url(#s)"/><path d="m470.76 216.39c0 1.84-.4 12.66-.4 12.66 1.11 1.26 6.5 1.71 8.77-.21a5.27 5.27 0 0 0 2-2.9l-.66-15.8z" fill="url(#t)" transform="translate(-84.08 -163.58)"/><path d="m479.67 198.16.59 5.63.9 8.59.25 2.42c-5.48 9.32-14.55 10.3-17.49 7.19s-4.26-20.88-4.26-20.88z" fill="url(#u)" transform="translate(-84.08 -163.58)"/><path d="m477.2 222.84s-6.91-14.59-9.06-15.81-9.34.5-13.17-5.23-1.49-8.59 0-8.88 4.29 5.27 9.25 2 15.34-3.36 16.92.65c0 0 6.44.65 5 9.44s-3.83 16.16-6 16.82z" fill="url(#v)" transform="translate(-84.08 -163.58)"/><path d="m473 207c2.22 1.78 2.12 6.93-2.16 9.77l-1.75-8.45a2.59 2.59 0 0 1 3.91-1.32z" fill="url(#w)" transform="translate(-84.08 -163.58)"/><path d="m480.42 226.26c-6.14.25-15.84 1.32-18.13 8.2a27.77 27.77 0 0 0 -1 11.5c.3 3 .56 6 .69 9 .21 5.09.49 10.83-1.27 15.71l-8.79 20.68s32.08 11.42 47.08-3.72c0 0-.87-48.12-6.59-58-.7-1.21-2.62-1.87-3.83-2.26a22.76 22.76 0 0 0 -8.16-1.11z" fill="url(#x)" transform="translate(-84.08 -163.58)"/><path d="m446.47 271.15c-1.16 2.65-4.74 9.47-4.74 9.47l-3.48 2.32-2.25 1.48a6.59 6.59 0 0 1 -2.17.67 5.15 5.15 0 0 0 -1.15.09.69.69 0 0 0 -.5.63.84.84 0 0 0 .29.54 2.37 2.37 0 0 0 2.23.58 7.3 7.3 0 0 0 .85-.33 2.22 2.22 0 0 1 .89-.21 1 1 0 0 1 .79.39c.23.34.08.62-.16.85a6.81 6.81 0 0 0 -.75 1l-1.93 2.8c-.28.41-.61.78-.45 1.31a1.27 1.27 0 0 0 1.38.9 11.07 11.07 0 0 0 1.73-.84c.18-.08 1.51-.85 1.68-.73.72.53 1.1 1.24 2 .85a2.42 2.42 0 0 1 1.71-.42c.86.25 1.21 1.13 2.15 1.15.71 0 1.85-.2 2.17-1l4.1-12c.5-1.47 2.54-3 3.79-4.73z" fill="url(#y)" transform="translate(-84.08 -163.58)"/><path d="m453.19 277.64c1.29-.9 2-2.56 2.62-4.33 1.57-4.31 3.21-8.59 4.83-12.88.72-1.91 1.44-3.82 2.14-5.74 1.43-3.92 3.61-9.65-1.27-12.3a4.63 4.63 0 0 0 -3.93.33 5.47 5.47 0 0 0 -1.89 2 41.72 41.72 0 0 0 -2.46 6.13c-1.38 3.53-2.69 7.09-3.9 10.69-.78 2.32-1.52 4.64-2.16 7-.52 1.95-1.38 4.35-1.09 6.43s2.53 3.26 4.41 3.34a4.22 4.22 0 0 0 2.7-.67z" fill="url(#z)" transform="translate(-84.08 -163.58)"/><path d="m463.5 259.84c1.73-5.44 10.36-23.28 3.38-27.48-7.72-4.65-17.32 21.19-17.32 21.19z" fill="#fff" transform="translate(-84.08 -163.58)"/><path d="m308.09 263.33c-.67.74-8-7.63-8.65-8.45-3-3.61-20.65-31.77-7.94-32.27a6.28 6.28 0 0 1 4.75 2.27c5.29 5.67 17.53 27.18 17.53 27.18z" fill="#fff" transform="translate(-84.08 -163.58)"/><path d="m309.8 263.33s-2.17-10.69 4-12.8l-.7-1.33a7.62 7.62 0 0 0 -4.72 1.66c-1.13.93-5.22 5.22-4.69 10.65 0 .41 4.22 2 4.22 2z" fill="url(#A)" transform="translate(-84.08 -163.58)"/><path d="m321.79 219.47a3.64 3.64 0 0 1 1.19 1.19c.13.2.74 1 .64 1.25l.46-1.08c.22-.51.4-1.17 1.09-1.1a2.18 2.18 0 0 1 .87.36 2.08 2.08 0 0 0 .87.35c.32 0 .63-.09 1-.1.76 0 1.35.64 2.06.92.56.22 1.23.21 1.68.61a2 2 0 0 1 .47.73c.33.79.76 2.18.33 3l-6.57 10.91c-.86 1.43-1.27 3.62-1.79 5.21-.57 1.75-1.12 3.52-1.65 5.28-1.31 4.32-6 20.9-13.46 15.56-1.6-1.15-1.67-4.45-1.56-6.53.25-4.91 13.18-22.86 13.18-22.86l.75-4.23-.05-4.35a10.52 10.52 0 0 0 -.35-3.42 2.18 2.18 0 0 1 -.14-1.46.65.65 0 0 1 .46-.44.82.82 0 0 1 .52.2z" fill="url(#B)" transform="translate(-84.08 -163.58)"/><path d="m283.1 389.43a12.51 12.51 0 0 1 .84-2.6c.09-.24.83-2.6.84-2.86.2-3.88-.36-14.6-.36-14.6h10.72s-1.64 9.26-.2 14.74c4.71 2.69 13.12 6.3 13.12 6.3s9.55 1.67 10 1.89a8.87 8.87 0 0 1 3.14 1.91s1.09 2.48-10.88 4.23c0 0-5.18 1.08-13.45-.32l-5.38-.53c-1.84-.18-7.37-.43-8.09-1a2.1 2.1 0 0 1 -.59-.64c-.9-1.68.04-4.69.29-6.52z" fill="url(#C)" transform="translate(-84.08 -163.58)"/><path d="m283.94 386.84c.05-.14.32-1 .54-1.73l1.2.64c4.54 2.35 9.49 2.17 14.38 1.19l.26-.07c3.92 1.89 7.72 3.52 7.72 3.52s9.55 1.67 10 1.89a8.87 8.87 0 0 1 3.14 1.91s1.09 2.48-10.88 4.23c0 0-5.18 1.08-13.45-.32l-5.38-.53c-1.84-.18-7.37-.43-8.09-1a2.1 2.1 0 0 1 -.59-.64c-.95-1.7 0-4.71.24-6.53a12.5 12.5 0 0 1 .91-2.56z" fill="url(#D)" transform="translate(-84.08 -163.58)"/><path d="m297.47 294.31c-.21-9.64-2.3-27.23-10.28-27.81-3-.22-6-1.31-8.75-.17a9.72 9.72 0 0 0 -1.85 1c-3.13 2.18-5 6.09-5.4 10-.51 4.57.6 9.15 1.69 13.62 2.35 9.7 4.61 19.45 7.68 28.95a29.09 29.09 0 0 0 1.56 4c-4.37 23.34 2.44 56.12 2.44 56.12l10-1s3.29-54.2 3.46-60.9a17.6 17.6 0 0 0 -.17-3.19c.83-6.69-.21-13.14-.38-20.62z" fill="url(#E)" transform="translate(-84.08 -163.58)"/><path d="m254.92 391.29a12.5 12.5 0 0 1 1.08-2.49c.12-.23 1.1-2.49 1.14-2.76.61-3.84 1.18-14.56 1.18-14.56l10.68 1.12s-2.61 9-1.76 14.63c4.4 3.17 12.38 7.66 12.38 7.66s9.31 2.67 9.79 2.95a8.88 8.88 0 0 1 2.93 2.23s.82 2.59-11.27 3.05c0 0-5.27.53-13.34-1.74l-5.29-1.1c-1.81-.38-7.28-1.2-7.94-1.82a2.1 2.1 0 0 1 -.52-.7c-.75-1.76.5-4.68.94-6.47z" fill="url(#F)" transform="translate(-84.08 -163.58)"/><path d="m256 388.8c.07-.13.42-.95.72-1.66l1.13.77c4.27 2.81 9.2 3.16 14.17 2.71h.27c3.7 2.29 7.31 4.32 7.31 4.32s9.31 2.67 9.79 2.95a8.88 8.88 0 0 1 2.93 2.23s.82 2.59-11.27 3.05c0 0-5.27.53-13.34-1.74l-5.29-1.1c-1.81-.38-7.28-1.2-7.94-1.82a2.1 2.1 0 0 1 -.52-.7c-.76-1.79.48-4.68.93-6.47a12.5 12.5 0 0 1 1.11-2.54z" fill="url(#G)" transform="translate(-84.08 -163.58)"/><path d="m281.27 284.16a18.66 18.66 0 0 0 -8.15-14 10.91 10.91 0 0 0 -11.68-.53 13.49 13.49 0 0 0 -6 8.89c-1.12 5.42-.36 11.21.66 16.58 1.07 5.58 1.86 11.2 2.89 16.79.6 3.27 1.31 6.52 1.91 9.78.15.83.33 1.72.55 2.59-7.54 22.74-4.07 57.81-4.07 57.81h10s9-53.2 9.88-60.12c.19-.74.38-1.46.59-2.14a76.71 76.71 0 0 0 2.64-12.28 108.28 108.28 0 0 0 .78-23.37z" fill="url(#H)" transform="translate(-84.08 -163.58)"/><path d="m254.77 277.85c1.25-6.07 3.15-11.65 2.8-17.94s-.65-12.7-1.13-19c-.2-2.69-.74-5.48-.8-8.16-.09-3.6 1.92-6.45 4.45-8.84a41.64 41.64 0 0 1 7.29-5.17l.3-.18a18.83 18.83 0 0 1 3-1.58 18.06 18.06 0 0 1 14.52 1l7.9 4.6a9.13 9.13 0 0 1 4.32 8.35c-.35 7.53-.74 15.05-1.26 22.57-.27 3.93-1 7.71-.68 11.67.49 5.16 2.29 10.84.89 16-.69 2.54-2.56 3.22-4.77 3.65-5.7 1.12-11.37 2.63-17.15 3.19a39.34 39.34 0 0 1 -16.67-2.45c-3.34-1.23-3.72-4.22-3.01-7.71z" fill="url(#I)" transform="translate(-84.08 -163.58)"/><path d="m200.5 65.45-6.25-6.73 6.72-.79z" fill="url(#J)"/><path d="m203.31 62.73-1.82 8.87-4.88-8.02 2.95-.46.94 1.91v-1.95z" fill="url(#K)"/><path d="m201.74 69.08-1.56.15 1.48 36.69 4.8 3.88 3.33-5.18z" fill="url(#L)"/><path d="m271.52 210.17 1.09 8s3.15 9.41 12.71 2.9l-2-12.48z" fill="url(#M)" transform="translate(-84.08 -163.58)"/><path d="m270.71 197.11 2.16 14.32.1 2c5.63 6.84 13.1 6.47 15.08 3.58s1.45-22.36 1.45-22.36z" fill="url(#N)" transform="translate(-84.08 -163.58)"/><path d="m203.02 42.01-.46 6.21 3.55.26z" fill="#e0afb7"/><path d="m276.83 197.43a11 11 0 0 1 -1.43 5.6c-1.69 3.38.12 9.09.12 9.09l-4.76-5.93 1.58 10.36a69 69 0 0 1 -7.52-16.44c-.92-3.33-.77-7.81 3.11-9.06.91-.29 2.81-.68 2.81-.68s.34-.4.51-.56a7.48 7.48 0 0 1 2.38-1.43c3.9-1.56 8.51-1.09 12.54-.39 13.12 2.29 3.51 10.82 3.51 10.82l-.37-2.87s-6.78 5.63-12.48 1.49z" fill="url(#O)" transform="translate(-84.08 -163.58)"/><path d="m269.39 204.66c-1.29 1.74-.22 5.51 3.48 6.77l-.34-6.56a2 2 0 0 0 -3.14-.21z" fill="url(#P)" transform="translate(-84.08 -163.58)"/><path d="m284.58 228.61 3-2.35-2.7-6.37s-.44 8.57-.3 8.72z" fill="url(#Q)" transform="translate(-84.08 -163.58)"/><path d="m200.81 56.3 2.69 6.37 5.01.97-7.7-7.91z" fill="url(#R)"/><path d="m185.77 53.83 8.04 12.48 5.16-4.37-10.6-10.14z" fill="url(#S)"/><path d="m198.97 61.94 1.53 3.09-3.13-1.79z" fill="url(#T)"/><path d="m314.47 255.51c-.45-.08-45.79-7.72-59.3 39.58q-1.17 4.12-2.36 8.32c-10.18 36.06-20.66 73.18-41.58 80.36a38.94 38.94 0 0 1 -10.23 11.23q1.46.12 2.87.12c32.29 0 45.55-47 57.29-88.6q1.18-4.17 2.35-8.28c11.16-39.06 48.06-33 49.63-32.74l.67-5z" fill="url(#U)" transform="translate(-84.08 -163.58)"/><path d="m338.13 224.69h-.62a33.64 33.64 0 1 0 0 67.28h.62z" fill="url(#V)" transform="translate(-84.08 -163.58)"/><path d="m254.06 61.1h12.84v67.26h-12.84z" fill="url(#W)"/><path d="m339.93 273.2a4.62 4.62 0 0 0 4.62 4.62h23.21v-9.25h-23.21a4.62 4.62 0 0 0 -4.62 4.63z" fill="url(#X)" transform="translate(-84.08 -163.58)"/><path d="m344.55 238.81a4.62 4.62 0 0 0 0 9.25h23.21v-9.25z" fill="url(#Y)" transform="translate(-84.08 -163.58)"/><circle cx="283.68" cy="79.85" fill="url(#Z)" r="4.62"/><circle cx="283.68" cy="109.62" fill="url(#aa)" r="4.62"/><path d="m283.77 268.13c-.75.82-11.84-10-12.72-10.82-3.84-3.69-24.54-30.52-9.39-31.69a8 8 0 0 1 5.79 2.18c6.64 5.77 22.46 28.05 22.46 28.05z" fill="#fff" transform="translate(-84.08 -163.58)"/><path d="m201.69 104.31 4.86-2.5.95-.89.35-1.06-.59-4.54-.6-4.51-6.7.66-4.47 4.67v5.83l3.98 2.76z" fill="url(#ab)"/><path d="m336.85 259.44c.25-.91-.49-1.49-.49-2.39 0-.66.49-1.07.89-1.52.62-.72.05-1.28-.25-2.13-.07-.19 1.06-1.25 1.18-1.4a11.06 11.06 0 0 0 1.3-1.41 1.27 1.27 0 0 0 -.48-1.59c-.47-.3-.91-.09-1.38.06l-3.23 1.05a6.82 6.82 0 0 0 -1.2.43.61.61 0 0 1 -.87-.09 1 1 0 0 1 -.14-.87 2.22 2.22 0 0 1 .45-.79 7.31 7.31 0 0 0 .56-.72 2.37 2.37 0 0 0 .08-2.3.84.84 0 0 0 -.43-.43.69.69 0 0 0 -.75.3 5.15 5.15 0 0 0 -.41 1.07 6.59 6.59 0 0 1 -1.26 1.89l-2.05 1.71-3.2 2.69-3.67 1.86s-32.37-.62-36.22 2.11c-1.63 1.16-4 3.21-3.81 5.39 1 9.41 24.44 2.72 26.15 2.19 1.54-.48 13.35-2.73 15-2.79l12.68-.5c.83-.1 1.37-1.14 1.55-1.82z" fill="url(#ac)" transform="translate(-84.08 -163.58)"/><path d="m283.54 268.32s1.23-11.29 7.19-13.92l-.82-.91s-5.22-.09-6.42 1-6 6.68-5 12c.08.41 4.38 1.63 4.38 1.63z" fill="url(#ad)" transform="translate(-84.08 -163.58)"/><path d="m329.64 227.63s1.47-.14.82-1.36l1.46 1.71s1.88 1.5 2.77-1.83l-1.52-2.15c-.35-.5-.7-1-1-1.49a1.35 1.35 0 0 0 -.63-.61l-1.45-.65a3.17 3.17 0 0 0 -.93-.3c-.27 0-.54 0-.81 0a6.79 6.79 0 0 1 -1.75-.52c-.4-.13-1.24-.37-1.49.14s.75 1.62 1.08 2.1l1.55 2.23z" fill="url(#ae)" transform="translate(-84.08 -163.58)"/><path d="m583.29 284.6c8.64 0 8.65-13.42 0-13.42s-8.65 13.42 0 13.42z" fill="url(#af)" transform="translate(-84.08 -163.58)"/><path d="m317.75 185.06c13.82 0 13.84-21.47 0-21.47s-13.84 21.47 0 21.47z" fill="url(#ag)" transform="translate(-84.08 -163.58)"/><path d="m650.34 356.1c13.82 0 13.84-21.47 0-21.47s-13.84 21.47 0 21.47z" fill="url(#ah)" transform="translate(-84.08 -163.58)"/><path d="m231.33 211.72h2.1a9 9 0 0 0 8.72-8.72l-.31-2.32a8.71 8.71 0 0 0 -2.24-3.85 9.06 9.06 0 0 0 -6.17-2.56h-2.1a9 9 0 0 0 -8.72 8.72l.31 2.32a8.71 8.71 0 0 0 2.24 3.85 9.07 9.07 0 0 0 6.17 2.55z" fill="url(#ai)" transform="translate(-84.08 -163.58)"/><path d="m213.19 281.92c5.18 0 5.19-8.05 0-8.05s-5.19 8.05 0 8.05z" fill="url(#aj)" transform="translate(-84.08 -163.58)"/><path d="m499 178.37c8.64 0 8.65-13.42 0-13.42s-8.65 13.42 0 13.42z" fill="url(#ak)" transform="translate(-84.08 -163.58)"/><path d="m135.88 322.21c12.09 0 12.11-18.79 0-18.79s-12.11 18.79 0 18.79z" fill="url(#al)" transform="translate(-84.08 -163.58)"/></svg>